<?xml version="1.0" encoding="UTF-8" standalone="no"?>
<!-- Created with Inkscape (http://www.inkscape.org/) -->

<svg
   xmlns:dc="http://purl.org/dc/elements/1.1/"
   xmlns:cc="http://creativecommons.org/ns#"
   xmlns:rdf="http://www.w3.org/1999/02/22-rdf-syntax-ns#"
   xmlns:svg="http://www.w3.org/2000/svg"
   xmlns="http://www.w3.org/2000/svg"
   xmlns:sodipodi="http://sodipodi.sourceforge.net/DTD/sodipodi-0.dtd"
   xmlns:inkscape="http://www.inkscape.org/namespaces/inkscape"
   width="64mm"
   height="64mm"
   viewBox="0 0 64 64"
   version="1.1"
   id="svg1507"
   inkscape:version="0.92.2 (5c3e80d, 2017-08-06)"
   sodipodi:docname="icon.svg">
  <defs
     id="defs1501" />
  <sodipodi:namedview
     id="base"
     pagecolor="#ffffff"
     bordercolor="#666666"
     borderopacity="1.0"
     inkscape:pageopacity="0.0"
     inkscape:pageshadow="2"
     inkscape:zoom="1.979899"
     inkscape:cx="135.91717"
     inkscape:cy="160.24062"
     inkscape:document-units="mm"
     inkscape:current-layer="layer1"
     showgrid="false"
     inkscape:window-width="1920"
     inkscape:window-height="1017"
     inkscape:window-x="1272"
     inkscape:window-y="-8"
     inkscape:window-maximized="1" />
  <metadata
     id="metadata1504">
    <rdf:RDF>
      <cc:Work
         rdf:about="">
        <dc:format>image/svg+xml</dc:format>
        <dc:type
           rdf:resource="http://purl.org/dc/dcmitype/StillImage" />
        <dc:title></dc:title>
      </cc:Work>
    </rdf:RDF>
  </metadata>
  <g
     inkscape:label="Calque 1"
     inkscape:groupmode="layer"
     id="layer1"
     transform="translate(0,-233)">
    <g
       transform="matrix(0.35277777,0,0,-0.35277777,-120.85898,401.04534)"
       id="g1452">
      <g
         style="fill:#cfe3f5;fill-opacity:1"
         id="g1380">
        <path
           d="m 373.871,414.261 c -14.23,-30.515 -3.102,-66.353 24.738,-83.758 v 0 c 20.157,8.531 37.584,22.333 34.278,35.884 v 0 c 10.987,-3.829 32.11,-13.143 22.345,-23.387 v 0 c 18.34,14.025 -24.712,33.415 -41.686,41.33 v 0 c -40.251,18.768 -41.8,37.251 -14.779,58.043 v 0 c -10.497,-6.525 -19.282,-16.074 -24.896,-28.112"
           style="fill:#cfe3f5;fill-opacity:1;stroke:none"
           id="path1113"
           inkscape:connector-curvature="0" />
        <g
           style="fill:#cfe3f5;fill-opacity:1"
           id="g1251">
          <g
             style="fill:#cfe3f5;fill-opacity:1"
             id="g1253">
            <g
               style="fill:#cfe3f5;fill-opacity:1"
               id="g1259">
              <g
                 style="fill:#cfe3f5;fill-opacity:1"
                 id="g1261">
                <path
                   d="m 419.411,384.964 c -4.139,8.324 1.644,18.434 14.634,25.93 v 0 c -0.603,-7.701 4.854,-15.525 19.702,-22.446 v 0 c 40.247,-18.768 41.797,-37.251 14.774,-58.044 v 0 c 10.502,6.525 19.285,16.074 24.901,28.113 v 0 c 13.913,29.841 3.579,64.772 -22.918,82.577 v 0 c -31.718,-12.366 -64.261,-36.485 -51.093,-56.13"
                   style="fill:#cfe3f5;fill-opacity:1;stroke:none"
                   id="path1271"
                   inkscape:connector-curvature="0" />
              </g>
            </g>
          </g>
        </g>
      </g>
      <g
         style="fill:#8db7e2;fill-opacity:1"
         id="g1412">
        <g
           style="fill:#8db7e2;fill-opacity:1"
           id="g1049">
          <g
             style="fill:#8db7e2;fill-opacity:1"
             id="g1051">
            <g
               style="fill:#8db7e2;fill-opacity:1"
               id="g1057">
              <g
                 style="fill:#8db7e2;fill-opacity:1"
                 id="g1059">
                <path
                   d="m 362.794,328.882 c 2,5.476 6.319,12.442 13.596,21.115 v 0 c -3.026,4.772 -5.441,9.895 -7.197,15.239 v 0 c -6.504,-7.479 -29.165,-34.432 -6.399,-36.354"
                   style="fill:#8db7e2;fill-opacity:1;stroke:none"
                   id="path1069"
                   inkscape:connector-curvature="0" />
              </g>
            </g>
          </g>
        </g>
        <g
           style="fill:#8db7e2;fill-opacity:1"
           id="g1071">
          <g
             style="fill:#8db7e2;fill-opacity:1"
             id="g1073">
            <g
               style="fill:#8db7e2;fill-opacity:1"
               id="g1079">
              <g
                 style="fill:#8db7e2;fill-opacity:1"
                 id="g1081">
                <path
                   d="m 400.359,439.969 c -24.321,-18.714 -22.927,-35.347 13.299,-52.238 v 0 c -47.179,23.61 -9.488,49.007 31.71,59.64 v 0 c -4.509,1.068 -9.063,1.586 -13.58,1.585 v 0 c -11.139,0 -22.046,-3.152 -31.429,-8.987"
                   style="fill:#8db7e2;fill-opacity:1;stroke:none"
                   id="path1091"
                   inkscape:connector-curvature="0" />
              </g>
            </g>
          </g>
        </g>
        <g
           style="fill:#8db7e2;fill-opacity:1"
           id="g1185">
          <g
             style="fill:#8db7e2;fill-opacity:1"
             id="g1187">
            <g
               style="fill:#8db7e2;fill-opacity:1"
               id="g1193">
              <g
                 style="fill:#8db7e2;fill-opacity:1"
                 id="g1195">
                <path
                   d="m 432.887,366.387 c -7.322,-35.727 -127.09,-69.124 -64.069,1.895 v 0 c -80.615,-79.896 73.346,-39.916 64.069,-1.895"
                   style="fill:#8db7e2;fill-opacity:1;stroke:none"
                   id="path1205"
                   inkscape:connector-curvature="0" />
              </g>
            </g>
          </g>
        </g>
        <g
           style="fill:#8db7e2;fill-opacity:1"
           id="g1207">
          <g
             style="fill:#8db7e2;fill-opacity:1"
             id="g1209">
            <g
               style="fill:#8db7e2;fill-opacity:1"
               id="g1215">
              <g
                 style="fill:#8db7e2;fill-opacity:1"
                 id="g1217">
                <path
                   d="m 499.64,440.879 c -1.414,-4.424 -4.497,-9.961 -9.615,-16.753 v 0 c 3.43,-5.134 6.137,-10.704 8.057,-16.537 v 0 c 7.903,9.475 26.558,33.312 2.743,33.309 v 0 c -0.382,0 -0.78,-0.006 -1.185,-0.019"
                   style="fill:#8db7e2;fill-opacity:1;stroke:none"
                   id="path1227"
                   inkscape:connector-curvature="0" />
              </g>
            </g>
          </g>
        </g>
        <g
           style="fill:#8db7e2;fill-opacity:1"
           id="g1229">
          <g
             style="fill:#8db7e2;fill-opacity:1"
             id="g1231">
            <g
               style="fill:#8db7e2;fill-opacity:1"
               id="g1237">
              <g
                 style="fill:#8db7e2;fill-opacity:1"
                 id="g1239">
                <path
                   d="m 421.924,325.406 c 15.627,-3.7 31.82,-0.799 45.009,7.4 v 0 c 24.319,18.716 22.924,35.35 -13.3,52.24 v 0 c 47.167,-23.201 9.488,-49.008 -31.709,-59.64"
                   style="fill:#8db7e2;fill-opacity:1;stroke:none"
                   id="path1249"
                   inkscape:connector-curvature="0" />
              </g>
            </g>
          </g>
        </g>
        <g
           style="fill:#8db7e2;fill-opacity:1"
           id="g1343">
          <g
             style="fill:#8db7e2;fill-opacity:1"
             id="g1345">
            <g
               style="fill:#8db7e2;fill-opacity:1"
               id="g1351">
              <g
                 style="fill:#8db7e2;fill-opacity:1"
                 id="g1353">
                <path
                   d="m 419.411,384.964 c -21.789,36.135 147.309,99.689 79.061,19.531 v 0 c 31.962,32.714 26.216,44.768 7.424,44.766 v 0 c -32.738,-0.004 -105.054,-36.598 -86.485,-64.297"
                   style="fill:#8db7e2;fill-opacity:1;stroke:none"
                   id="path1363"
                   inkscape:connector-curvature="0" />
              </g>
            </g>
          </g>
        </g>
      </g>
    </g>
  </g>
</svg>
